<svg width="134" height="55" viewBox="0 0 134 55" fill="none" xmlns="http://www.w3.org/2000/svg">
<g clip-path="url(#clip0)">
<path d="M23.376 3.9209H109.645C115.847 3.9209 121.796 6.38487 126.182 10.7708C130.567 15.1566 133.031 21.1052 133.031 27.3077C133.031 33.5103 130.567 39.4589 126.182 43.8447C121.796 48.2306 115.847 50.6946 109.645 50.6946H23.376V3.9209Z" fill="white"/>
<path d="M109.641 51.4393H22.6304V3.1748H109.641C116.041 3.1748 122.179 5.7173 126.705 10.243C131.23 14.7687 133.773 20.9068 133.773 27.307C133.773 33.7073 131.23 39.8455 126.705 44.3711C122.179 48.8968 116.041 51.4393 109.641 51.4393ZM24.1212 49.9485H109.641C115.646 49.9485 121.404 47.5631 125.651 43.317C129.897 39.0709 132.282 33.3119 132.282 27.307C132.282 21.3022 129.897 15.5432 125.651 11.2971C121.404 7.05103 115.646 4.6656 109.641 4.6656H24.1212V49.9485Z" fill="#333333"/>
<path d="M70.0747 22.6379V16.2051H68.8784V20.4352C68.8882 20.922 68.8164 21.407 68.6659 21.8701C68.5456 22.2389 68.3544 22.5808 68.1031 22.8764C67.8877 23.123 67.6218 23.3205 67.3235 23.4555C67.0251 23.5905 66.7013 23.6599 66.3738 23.6591C66.002 23.6716 65.6323 23.599 65.293 23.4466C65.0138 23.3169 64.7753 23.1132 64.6035 22.8577C64.4216 22.5829 64.2951 22.2753 64.2308 21.9521C64.1575 21.5626 64.1225 21.1669 64.1264 20.7706V16.2051H62.9264V21.2626C62.8852 22.1526 63.1641 23.0279 63.7127 23.7299C64.2345 24.3523 65.0209 24.6653 66.0645 24.6653C66.6524 24.666 67.2299 24.5103 67.7379 24.2144C68.2322 23.9522 68.6332 23.5434 68.8858 23.0441H68.9193C68.9193 23.2193 68.9194 23.4429 68.938 23.7112C68.9566 23.9796 68.9678 24.2293 68.9902 24.4566H70.1343C70.112 24.1734 70.0933 23.8566 70.0822 23.5062C70.071 23.1559 70.0747 22.8615 70.0747 22.6379Z" fill="#333333"/>
<path d="M78.7998 17.6325H78.7625C78.4265 17.1043 77.9504 16.6798 77.3873 16.4063C76.8456 16.1356 76.2486 15.994 75.643 15.9926C75.0424 15.9839 74.4463 16.0981 73.8913 16.3281C73.3863 16.539 72.9297 16.851 72.5496 17.2449C72.1747 17.642 71.8821 18.1094 71.6887 18.6202C71.2763 19.722 71.2763 20.9359 71.6887 22.0378C71.8821 22.5486 72.1747 23.016 72.5496 23.4131C72.9297 23.807 73.3863 24.119 73.8913 24.3299C74.4463 24.5599 75.0424 24.674 75.643 24.6653C76.2476 24.663 76.8439 24.5241 77.3873 24.2591C77.9478 23.9939 78.4238 23.5785 78.7625 23.059H78.7998V24.4492H79.9962V11.1289H78.7998V17.6325ZM78.7029 21.6427C78.5531 22.0322 78.3276 22.3881 78.0395 22.69C77.7457 22.9957 77.3924 23.2381 77.0014 23.4021C76.6104 23.5662 76.19 23.6486 75.766 23.6441C75.3131 23.6518 74.8636 23.5642 74.4467 23.387C74.0728 23.2258 73.7384 22.9855 73.4665 22.6826C73.1971 22.3726 72.9908 22.013 72.859 21.6241C72.5758 20.7839 72.5758 19.874 72.859 19.0338C72.9908 18.6449 73.1971 18.2854 73.4665 17.9754C73.739 17.6712 74.0731 17.4286 74.4467 17.2635C74.8619 17.0802 75.3122 16.9898 75.766 16.9989C76.2026 16.995 76.6353 17.0813 77.0369 17.2523C77.4153 17.4169 77.7564 17.6565 78.0395 17.9567C78.3254 18.2645 78.5505 18.6237 78.7029 19.0152C79.0219 19.862 79.0219 20.7959 78.7029 21.6427Z" fill="#333333"/>
<path d="M91.9594 17.2115C91.5882 16.8192 91.1387 16.5094 90.6401 16.3021C90.1062 16.0815 89.5331 15.9712 88.9555 15.9778C88.384 15.9722 87.8172 16.0825 87.2895 16.3021C86.7909 16.5094 86.3414 16.8192 85.9702 17.2115C85.5977 17.6083 85.3065 18.0742 85.113 18.583C84.7006 19.6977 84.7006 20.9232 85.113 22.0379C85.3065 22.5477 85.5976 23.0149 85.9702 23.4132C86.3425 23.8031 86.7918 24.1115 87.2895 24.3188C87.8165 24.5413 88.3835 24.653 88.9555 24.6468C89.5336 24.654 90.107 24.5424 90.6401 24.3188C91.1378 24.1115 91.5871 23.8031 91.9594 23.4132C92.332 23.0149 92.6231 22.5477 92.8166 22.0379C93.229 20.9232 93.229 19.6977 92.8166 18.583C92.6231 18.0742 92.3319 17.6083 91.9594 17.2115ZM91.7172 21.6056C91.5885 21.9927 91.3874 22.3519 91.1246 22.664C90.8681 22.9645 90.5488 23.2049 90.1891 23.3684C89.802 23.5443 89.3807 23.6321 88.9555 23.6256C88.5327 23.6325 88.1137 23.5446 87.7293 23.3684C87.3742 23.2027 87.059 22.9625 86.805 22.664C86.5408 22.3529 86.3396 21.9934 86.2124 21.6056C85.93 20.7589 85.93 19.8434 86.2124 18.9967C86.3405 18.6092 86.5416 18.2499 86.805 17.9382C87.0607 17.6397 87.3754 17.3973 87.7293 17.2264C88.1125 17.0459 88.5319 16.9554 88.9555 16.9617C89.3666 16.9552 89.774 17.0393 90.1489 17.2081C90.5238 17.3769 90.857 17.6261 91.1246 17.9382C91.3867 18.2508 91.5877 18.6099 91.7172 18.9967C91.9996 19.8434 91.9996 20.7589 91.7172 21.6056Z" fill="#333333"/>
<path d="M107.345 22.2124H107.311L104.904 16.2492H103.588L106.693 23.4982L106.007 25.194C105.873 25.5916 105.664 25.9598 105.392 26.2785C105.266 26.4061 105.115 26.5054 104.948 26.5697C104.78 26.634 104.602 26.6618 104.423 26.6512C104.123 26.6515 103.824 26.6037 103.54 26.5096L103.417 27.6016C103.771 27.6719 104.132 27.7069 104.494 27.7059C104.792 27.726 105.092 27.6859 105.375 27.588C105.658 27.49 105.919 27.3362 106.141 27.1357C106.557 26.6978 106.878 26.1789 107.084 25.6114L110.811 16.2119H109.54L107.345 22.2124Z" fill="#333333"/>
<path d="M82.6569 13.4736C82.4395 13.4748 82.231 13.5603 82.0755 13.7122C81.9922 13.7899 81.9258 13.884 81.8804 13.9885C81.835 14.093 81.8115 14.2057 81.8115 14.3197C81.8115 14.4336 81.835 14.5463 81.8804 14.6508C81.9258 14.7553 81.9922 14.8494 82.0755 14.9272C82.2303 15.0801 82.4392 15.1659 82.6569 15.1659C82.8745 15.1659 83.0834 15.0801 83.2383 14.9272C83.3216 14.8494 83.388 14.7553 83.4334 14.6508C83.4788 14.5463 83.5022 14.4336 83.5022 14.3197C83.5022 14.2057 83.4788 14.093 83.4334 13.9885C83.388 13.884 83.3216 13.7899 83.2383 13.7122C83.0827 13.5603 82.8743 13.4748 82.6569 13.4736Z" fill="#333333"/>
<path d="M101.56 21.8396C101.415 22.2066 101.191 22.5373 100.904 22.8087C100.593 23.0954 100.225 23.3143 99.8251 23.4516C99.4248 23.5889 99.0003 23.6416 98.5786 23.6062C98.1835 23.5633 97.8023 23.4362 97.4605 23.2335C97.1105 23.0232 96.8032 22.7489 96.5548 22.4248C96.3574 22.1562 96.1934 21.8646 96.0666 21.5564L100.185 20.1476L101.62 19.6556L102.768 19.2643C102.738 19.1637 102.712 19.0593 102.675 18.9587C102.6 18.7414 102.511 18.5297 102.406 18.3251C102.249 18.0035 102.054 17.7019 101.825 17.4269C101.477 17.007 101.05 16.6589 100.569 16.402C100.09 16.1537 99.5643 16.0065 99.0258 15.9696C98.4491 15.9352 97.8713 16.0163 97.3263 16.2082C96.7828 16.3882 96.2819 16.6774 95.8541 17.0579C95.4498 17.4143 95.1258 17.8526 94.9038 18.3437C94.6759 18.8392 94.5492 19.3752 94.5311 19.9202C94.5198 20.278 94.551 20.6358 94.6242 20.9862C94.6686 21.212 94.7271 21.4348 94.7994 21.6533C94.8329 21.7576 94.8739 21.8508 94.9149 21.9477C95.0952 22.3987 95.3469 22.8178 95.6603 23.1888C96.0078 23.6085 96.4346 23.9555 96.9163 24.21C97.3938 24.4595 97.918 24.6068 98.4556 24.6423C99.6134 24.7057 100.751 24.3168 101.627 23.5578C102.03 23.199 102.355 22.7614 102.581 22.272C102.689 22.0318 102.773 21.7823 102.835 21.5266L101.747 21.1986C101.711 21.4192 101.649 21.6345 101.56 21.8396ZM95.787 20.6023C95.7498 20.3969 95.7311 20.1886 95.7311 19.9799C95.7278 19.5719 95.8024 19.1671 95.951 18.7872C96.0955 18.4214 96.3152 18.09 96.5958 17.8145C96.8982 17.5177 97.2658 17.2956 97.6692 17.166C98.0697 17.021 98.4981 16.97 98.9214 17.0169C99.3162 17.0611 99.6972 17.1881 100.04 17.3896C100.389 17.599 100.695 17.8736 100.941 18.1984C101.069 18.364 101.182 18.5398 101.281 18.7239L95.787 20.6023Z" fill="#333333"/>
<path d="M118.544 21.2023C118.505 21.4209 118.439 21.6337 118.347 21.8359C118.204 22.2034 117.981 22.5344 117.695 22.8049C117.384 23.0964 117.014 23.3165 116.61 23.4497C116.211 23.5917 115.786 23.6439 115.365 23.6025C114.97 23.559 114.589 23.432 114.247 23.2298C113.898 23.0204 113.591 22.7458 113.345 22.4211C113.145 22.1535 112.98 21.8617 112.853 21.5527L116.953 20.1439L118.388 19.6519L119.536 19.2606C119.506 19.1599 119.48 19.0556 119.446 18.955C119.37 18.7383 119.281 18.5266 119.178 18.3214C119.019 18.0006 118.824 17.6992 118.597 17.4232C118.247 17.0031 117.819 16.655 117.337 16.3982C116.859 16.1504 116.335 16.0033 115.798 15.9659C115.221 15.931 114.643 16.0121 114.098 16.2044C113.554 16.3836 113.053 16.6729 112.626 17.0542C112.222 17.4114 111.897 17.8494 111.672 18.34C111.446 18.8362 111.319 19.3717 111.299 19.9165C111.287 20.2741 111.317 20.6319 111.389 20.9824C111.433 21.2087 111.492 21.4317 111.568 21.6496C111.601 21.7539 111.642 21.8471 111.679 21.944C111.861 22.3943 112.113 22.8132 112.425 23.1851C112.774 23.6048 113.202 23.9518 113.684 24.2063C114.162 24.4567 114.686 24.604 115.224 24.6386C116.382 24.7019 117.519 24.3131 118.395 23.5541C118.797 23.1952 119.121 22.7575 119.346 22.2683C119.455 22.0287 119.539 21.7791 119.599 21.5229L118.544 21.2023ZM112.581 20.5986C112.547 20.3928 112.53 20.1847 112.529 19.9762C112.525 19.5685 112.598 19.1637 112.745 18.7835C112.891 18.4184 113.111 18.0873 113.39 17.8108C113.692 17.514 114.06 17.2919 114.463 17.1623C114.864 17.0175 115.292 16.9665 115.716 17.0132C116.11 17.0572 116.491 17.1842 116.834 17.3859C117.182 17.5973 117.488 17.8715 117.736 18.1947C117.863 18.3603 117.976 18.5361 118.075 18.7202L112.581 20.5986Z" fill="#333333"/>
<path d="M61.4507 22.6379V16.2051H60.2506V17.6326H60.1984C59.8606 17.1059 59.3849 16.6818 58.8231 16.4064C58.2813 16.136 57.6844 15.9944 57.0789 15.9927C56.477 15.9836 55.8796 16.0978 55.3235 16.3281C54.8195 16.539 54.3641 16.8511 53.9855 17.245C53.6084 17.6411 53.3144 18.1087 53.1208 18.6202C52.7084 19.7221 52.7084 20.936 53.1208 22.0379C53.3144 22.5494 53.6084 23.017 53.9855 23.4131C54.3641 23.807 54.8195 24.119 55.3235 24.33C55.8796 24.5603 56.477 24.6745 57.0789 24.6654C57.6834 24.6627 58.2796 24.5238 58.8231 24.2592C59.3827 23.9925 59.8584 23.5774 60.1984 23.0591H60.2319V23.1038L60.258 23.0591H60.3065C60.3065 23.2342 60.3065 23.4318 60.3065 23.7113C60.3065 23.9908 60.3363 24.2293 60.3586 24.4567H61.5066C61.4842 24.1734 61.4656 23.8566 61.4544 23.5063C61.4432 23.156 61.4507 22.8615 61.4507 22.6379ZM60.135 21.6428C59.9892 22.0308 59.7665 22.3854 59.4802 22.6851C59.1939 22.9848 58.85 23.2236 58.4691 23.387C58.0695 23.5611 57.6377 23.6487 57.2019 23.6442C56.7477 23.6523 56.2969 23.5647 55.8788 23.387C55.5055 23.2268 55.1721 22.9863 54.9023 22.6826C54.6318 22.3728 54.4242 22.0133 54.2911 21.6242C54.0128 20.7832 54.0128 19.8749 54.2911 19.0339C54.4242 18.6448 54.6318 18.2853 54.9023 17.9755C55.1728 17.6706 55.5058 17.4278 55.8788 17.2636C56.2952 17.0799 56.7468 16.9896 57.2019 16.999C57.6372 16.9951 58.0687 17.0814 58.4691 17.2524C58.849 17.4179 59.1913 17.6588 59.4753 17.9605C59.7609 18.2665 59.9849 18.6246 60.135 19.0153C60.454 19.8621 60.454 20.796 60.135 21.6428Z" fill="#333333"/>
<path d="M83.2535 16.1787H82.0571V24.4377H83.2535V16.1787Z" fill="#333333"/>
<path d="M60.9997 32.5175H57.6044V41.6561H56.3857V32.5175H52.9941V31.3994H60.9997V32.5175Z" fill="#333333"/>
<path d="M63.3477 31.3887H65.9565C66.4485 31.3893 66.94 31.4179 67.4287 31.4744C67.8838 31.5241 68.3273 31.6501 68.7406 31.8471C69.1255 32.0406 69.4512 32.3341 69.6835 32.6968C69.95 33.1566 70.0793 33.6829 70.0562 34.2137C70.0706 34.5483 70.0176 34.8823 69.9005 35.196C69.7833 35.5097 69.6044 35.7967 69.3742 36.04C68.8587 36.5321 68.1964 36.8423 67.4883 36.9233L70.4028 41.6528H68.912L66.128 37.0425H64.5626V41.6565H63.3477V31.3887ZM64.5626 35.9132H65.6509C65.9901 35.9132 66.3404 35.9132 66.7019 35.8834C67.0435 35.8687 67.3812 35.8047 67.7045 35.6933C67.9926 35.5954 68.2497 35.4231 68.4499 35.1939C68.665 34.9157 68.771 34.5684 68.7481 34.2175C68.7624 33.9067 68.686 33.5985 68.5282 33.3304C68.3863 33.1121 68.1897 32.9348 67.9579 32.8161C67.7076 32.6919 67.4378 32.6112 67.1604 32.5776C66.8637 32.5389 66.565 32.519 66.2659 32.5179H64.5626V35.9132Z" fill="#333333"/>
<path d="M80.7006 37.7395C80.703 38.2781 80.6328 38.8147 80.4919 39.3346C80.362 39.8176 80.135 40.2691 79.8248 40.6614C79.5037 41.056 79.0937 41.3689 78.6284 41.5745C77.4732 42.0318 76.1871 42.0318 75.0319 41.5745C74.5666 41.3689 74.1566 41.056 73.8355 40.6614C73.5252 40.2691 73.2982 39.8176 73.1684 39.3346C73.0256 38.8151 72.9554 38.2783 72.9597 37.7395V31.4036H74.1747V37.5792C74.1732 37.9843 74.2182 38.3882 74.3088 38.783C74.3873 39.1511 74.5339 39.5013 74.7412 39.8154C74.9493 40.1169 75.2283 40.3626 75.5536 40.531C75.956 40.7079 76.3907 40.7992 76.8301 40.7992C77.2696 40.7992 77.7043 40.7079 78.1066 40.531C78.432 40.3626 78.711 40.1169 78.9191 39.8154C79.1264 39.5013 79.273 39.1511 79.3514 38.783C79.4408 38.388 79.4846 37.9841 79.4819 37.5792V31.3887H80.7006V37.7395Z" fill="#333333"/>
<path d="M88.9373 33.2003C88.7467 32.8837 88.4629 32.6338 88.1248 32.4847C87.7923 32.3341 87.4314 32.2566 87.0663 32.2574C86.7971 32.2583 86.5292 32.2934 86.2688 32.3617C86.0193 32.4239 85.7815 32.5258 85.5644 32.6636C85.346 32.806 85.1679 33.0021 85.0471 33.2331C84.9264 33.4642 84.8671 33.7224 84.8749 33.983C84.8707 34.1946 84.9087 34.4049 84.9867 34.6016C85.0646 34.7889 85.186 34.955 85.3407 35.0861C85.542 35.2535 85.7668 35.3904 86.0079 35.4924C86.343 35.6371 86.6865 35.7615 87.0365 35.8651C87.4316 35.9918 87.8192 36.126 88.1882 36.2713C88.5425 36.4061 88.8752 36.5919 89.1758 36.8229C89.4614 37.0481 89.6942 37.333 89.8579 37.6578C90.1463 38.253 90.2185 38.9301 90.0621 39.5728C89.9057 40.2155 89.5304 40.7837 89.0007 41.1798C88.6546 41.4339 88.264 41.621 87.849 41.7314C87.4095 41.8525 86.9557 41.9139 86.4998 41.914C86.1986 41.9126 85.8981 41.8852 85.6016 41.832C85.3054 41.7813 85.0155 41.6988 84.737 41.586C84.4616 41.4731 84.2013 41.3266 83.9618 41.15C83.7176 40.9678 83.507 40.7446 83.3394 40.4903L84.3829 39.6368C84.6006 40.0072 84.9237 40.3043 85.3109 40.4903C85.7039 40.6836 86.1364 40.7831 86.5744 40.781C86.8419 40.7805 87.108 40.7416 87.3645 40.6655C87.6199 40.5922 87.8616 40.4776 88.0801 40.3263C88.2899 40.177 88.4674 39.9868 88.6019 39.7672C88.7411 39.5357 88.8122 39.2696 88.8069 38.9995C88.8165 38.7308 88.7616 38.4636 88.6466 38.2205C88.5274 38.0113 88.3584 37.8346 88.1546 37.7062C87.891 37.5417 87.6081 37.4103 87.3123 37.3149L86.1234 36.9086C85.7757 36.8022 85.4367 36.6689 85.1097 36.5099C84.8135 36.3704 84.5416 36.1842 84.3046 35.9583C84.0739 35.737 83.8912 35.4706 83.768 35.1756C83.5227 34.6061 83.4758 33.9707 83.6346 33.3713C83.7934 32.7719 84.1488 32.2432 84.6438 31.8698C84.9808 31.6192 85.3593 31.43 85.7619 31.3107C86.1854 31.1858 86.6248 31.123 87.0663 31.1244C87.6074 31.1178 88.1452 31.2087 88.654 31.3927C89.1548 31.5889 89.5964 31.9112 89.9361 32.3282L88.9373 33.2003Z" fill="#333333"/>
<path d="M99.5217 32.5175H96.1264V41.6561H94.9114V32.5175H91.5161V31.3994H99.5217V32.5175Z" fill="#333333"/>
<path d="M101.463 31.3887H107.919V32.5068H102.682V35.7269H107.568V36.845H102.682V40.4974H108.179V41.6155H101.471L101.463 31.3887Z" fill="#333333"/>
<path d="M110.736 31.3887H114.679C115.04 31.3903 115.4 31.4291 115.753 31.5042C116.138 31.5868 116.513 31.7118 116.871 31.8769C117.253 32.0542 117.613 32.2756 117.944 32.5366C118.295 32.8159 118.601 33.1463 118.854 33.5168C119.126 33.9231 119.336 34.3678 119.476 34.8361C119.784 35.9406 119.784 37.1083 119.476 38.2128C119.335 38.682 119.125 39.1278 118.854 39.5359C118.602 39.9059 118.296 40.2352 117.944 40.5123C117.615 40.7759 117.255 40.9975 116.871 41.172C116.514 41.3404 116.139 41.4655 115.753 41.5447C115.4 41.621 115.04 41.661 114.679 41.664H110.736V31.3887ZM111.97 40.5235H114.288C114.843 40.5278 115.396 40.45 115.928 40.2925C116.409 40.1481 116.854 39.9029 117.232 39.5731C117.612 39.2321 117.909 38.8089 118.101 38.3358C118.528 37.1648 118.528 35.8804 118.101 34.7094C117.91 34.2349 117.613 33.8104 117.232 33.4683C116.854 33.1384 116.409 32.8943 115.928 32.7528C115.396 32.5922 114.843 32.513 114.288 32.5179H111.97V40.5235Z" fill="#333333"/>
<path d="M23.5173 53.9143C23.3857 53.9118 23.2571 53.8745 23.1446 53.8062L7.94968 44.5521C5.74563 43.1955 3.92699 41.2955 2.66811 39.0342C1.40923 36.7729 0.752311 34.2262 0.760326 31.6381V7.94938C0.760319 7.84172 0.783635 7.73533 0.828672 7.63754C0.873709 7.53974 0.939396 7.45287 1.02121 7.38289C5.89239 3.2273 14.3042 0.745117 23.5322 0.745117C32.7602 0.745117 41.1721 3.2273 46.0395 7.38289C46.1213 7.45287 46.187 7.53974 46.232 7.63754C46.2771 7.73533 46.3004 7.84172 46.3004 7.94938V31.6381C46.3085 34.2249 45.6525 36.7704 44.3949 39.0309C43.1374 41.2914 41.3206 43.1912 39.1185 44.5484L23.9198 53.8062C23.7987 53.8798 23.659 53.9173 23.5173 53.9143Z" fill="#0074BC"/>
<path d="M23.5174 1.4908C32.8348 1.4908 41.0044 4.0736 45.5401 7.94967V31.6384C45.5424 34.097 44.9163 36.5153 43.7213 38.6639C42.5264 40.8125 40.8021 42.6201 38.7123 43.9151L23.5174 53.1692L8.32244 43.9151C6.23215 42.6203 4.50739 40.8128 3.31178 38.6642C2.11617 36.5157 1.48938 34.0972 1.49088 31.6384V7.94967C6.03035 4.0736 14.1962 1.4908 23.5174 1.4908ZM23.5174 0C14.1179 0 5.52348 2.54554 0.521858 6.81666C0.360117 6.95499 0.229867 7.12634 0.139867 7.3192C0.0498668 7.51205 0.00220536 7.72195 8.20632e-05 7.93476V31.6235C-0.00865075 34.3374 0.679736 37.0081 1.99928 39.3796C3.31883 41.7511 5.22531 43.744 7.53605 45.1674L22.7422 54.4289C22.9757 54.5711 23.2439 54.6463 23.5174 54.6463C23.7908 54.6463 24.059 54.5711 24.2926 54.4289L39.4875 45.1748C41.8005 43.7515 43.7089 41.7577 45.0298 39.3848C46.3507 37.0118 47.0398 34.3393 47.0309 31.6235V7.94967C47.0288 7.73685 46.9811 7.52696 46.8911 7.33411C46.8011 7.14125 46.6709 6.96989 46.5092 6.83157C41.5299 2.54553 32.9131 0 23.5174 0Z" fill="#333333"/>
<path d="M23.2937 30.2928C23.2117 30.4978 23.1558 30.6208 23.1073 30.7438C21.865 34.0211 20.6301 37.2946 19.4027 40.5644C19.2644 40.9746 18.9949 41.3278 18.6359 41.5696C18.2769 41.8114 17.8483 41.9284 17.4162 41.9024C17.0121 41.8984 16.6194 41.7684 16.2927 41.5306C15.966 41.2927 15.7217 40.9589 15.5937 40.5756C15.4498 40.1009 15.4695 39.5917 15.6496 39.1295C16.4211 36.7666 17.2485 34.4186 17.9342 32.0483C18.8372 28.7913 19.2837 25.4248 19.2611 22.045C19.2611 21.3332 19.0971 21.1282 18.4001 20.9716L10.4616 19.1864C10.1624 19.1396 9.87833 19.0231 9.63234 18.8463C9.38635 18.6696 9.18529 18.4376 9.04537 18.1689C8.9099 17.8959 8.84903 17.5918 8.86892 17.2876C8.88881 16.9834 8.98877 16.6899 9.15865 16.4367C9.32854 16.1836 9.56232 15.9799 9.8363 15.8462C10.1103 15.7126 10.4147 15.6537 10.7188 15.6756C11.6095 15.724 12.4966 15.9216 13.3873 16.0483C16.1527 16.4434 18.8995 17.0061 21.7022 17.1328C24.2611 17.2333 26.8235 17.0735 29.35 16.6558C31.4048 16.3278 33.4596 16.0048 35.5144 15.6868C35.7524 15.6355 35.9981 15.632 36.2375 15.6763C36.4768 15.7207 36.705 15.812 36.9088 15.9451C37.1126 16.0782 37.288 16.2504 37.4248 16.4517C37.5616 16.653 37.6572 16.8795 37.7059 17.1179C37.8699 18.087 37.2326 18.9367 36.1518 19.179C33.5056 19.7803 30.8594 20.3766 28.2133 20.9679C27.4902 21.1319 27.3374 21.322 27.3337 22.0637C27.3039 27.1063 28.3847 31.9402 30.0693 36.6585C30.3712 37.5046 30.6656 38.3543 30.9601 39.2041C31.3514 40.3222 30.8855 41.4067 29.842 41.7943C29.5885 41.8921 29.3181 41.938 29.0466 41.9294C28.7751 41.9207 28.5081 41.8577 28.2614 41.7441C28.0146 41.6305 27.7932 41.4685 27.6102 41.2678C27.4272 41.0671 27.2863 40.8317 27.1958 40.5756C25.9535 37.3033 24.7186 34.0298 23.4912 30.755C23.4353 30.6134 23.3794 30.4941 23.2937 30.2928Z" fill="white"/>
<path d="M23.2899 9.29494C23.9841 9.29348 24.6631 9.49827 25.2406 9.88332C25.8182 10.2684 26.2684 10.8163 26.534 11.4577C26.7997 12.099 26.8688 12.8048 26.7326 13.4855C26.5965 14.1662 26.2612 14.791 25.7693 15.2808C25.2774 15.7706 24.6511 16.1033 23.9698 16.2365C23.2885 16.3698 22.5831 16.2976 21.9429 16.0293C21.3027 15.7609 20.7566 15.3084 20.3741 14.7291C19.9915 14.1499 19.7896 13.4701 19.794 12.7759C19.7945 12.3177 19.8854 11.864 20.0614 11.441C20.2375 11.0179 20.4952 10.6337 20.8199 10.3103C21.1447 9.98698 21.53 9.73086 21.9538 9.55663C22.3776 9.3824 22.8317 9.29347 23.2899 9.29494Z" fill="white"/>
</g>
<defs>
<clipPath id="clip0">
<rect width="133.777" height="54.66" fill="white"/>
</clipPath>
</defs>
</svg>
