<svg id="Group_54" data-name="Group 54" xmlns="http://www.w3.org/2000/svg" width="432.082" height="113.484" viewBox="0 0 432.082 113.484">
  <g id="Group_52" data-name="Group 52">
    <g id="Group_51" data-name="Group 51">
      <g id="Group_49" data-name="Group 49">
        <path id="Path_1316" data-name="Path 1316" d="M137.044,466.454c-.149,0-.3,0-.449,0-14.684-.115-28.864-6.4-39.929-17.69-10.852-11.074-16.977-25.311-16.8-39.061a57.551,57.551,0,0,1,16.762-40.108A56.023,56.023,0,0,1,136.6,352.97a56.8,56.8,0,0,1,39.9,97.168A55.68,55.68,0,0,1,137.044,466.454Zm-.437-1.641a53.988,53.988,0,0,0,38.742-15.837,55.083,55.083,0,1,0-77.567-78.228A55.911,55.911,0,0,0,81.5,409.721c-.167,13.316,5.789,27.129,16.337,37.893,10.761,10.979,24.529,17.087,38.773,17.2Z" transform="translate(-79.858 -352.97)" fill="#fff"/>
      </g>
      <g id="Group_50" data-name="Group 50" transform="translate(6.941 6.946)">
        <path id="Path_1317" data-name="Path 1317" d="M302.04,414.624a2.894,2.894,0,1,1,5.789,0Z" transform="translate(-241.575 -400.85)" fill="#fff"/>
        <path id="Path_1318" data-name="Path 1318" d="M164.016,409.295a4.563,4.563,0,0,1,9.126,0Zm36.3,5.813c-9.557-10.527-28.288-19.3-48.4-15.906-2.027.343-3.553.677-5.048,1.056,0,0,1.456-7.591,10.282-7.943,0,0,2.218-11.753,15.715-12.141-10.224-4.872-21.492-4.284-21.492-4.284a47.042,47.042,0,0,0-24.316,6.993,30.205,30.205,0,0,1,11.447,5.84s-15.882-5.716-25.791,7.093a62.648,62.648,0,0,0-3.468,5.288,37.185,37.185,0,0,1,23.012-.294s-19.477-1.747-28.394,14.344a48.28,48.28,0,0,0-.9,14.917,37.684,37.684,0,0,1,13.121-10.527c-5.139-3.965-.276-10.063-.276-10.063a8.412,8.412,0,0,1,4.663,9.117c.713,1.086,6.553,4.32,12.439,4.117a8.6,8.6,0,0,0,.482-7.36v0a9.568,9.568,0,0,1,4.945,5.431c4.463-3.686,2.215-11.007.88-14.49h0c9.909,3.559,11.592,15.266,11.592,15.266a13.032,13.032,0,0,1,7.551,5.221,32.218,32.218,0,0,1-26.652,23.995s-4.988,9.954-1.059,19.6c4.126,2.154,8.246,3.334,14.013,4.445-1.389-5.7-1.82-9.781-.033-18.158a41.561,41.561,0,0,0,7.576,18.749,45.532,45.532,0,0,0,14.754-2.081c-3.2-4.982-8.434-14.156-9.672-24.95,0,0,7.372,15.033,17.505,21.85a59.157,59.157,0,0,0,13-9.4c-15.054-8.1-19.665-20.9-19.665-20.9s7.949,10.242,23.983,14.526c0,0,6.228-11.683,4.487-22.478-6.122,1.732-15.542,1.7-21.8-.549,0,0,9.684.1,17.687-4.278,0,0,6.1-2.873,6.1-7.648-3.534-2.36-6.15-4.49-6.15-4.49,2.463.385,4.614.907,7.078,1.335A6.45,6.45,0,0,0,200.313,415.107Zm-61.83-26.388,12.87-12.836" transform="translate(-102.738 -375.867)" fill="#fff"/>
      </g>
    </g>
    <path id="Path_1319" data-name="Path 1319" d="M188.66,546.056a3.3,3.3,0,0,1,6.608-.024Z" transform="translate(-155.651 -485.167)" fill="#fff"/>
  </g>
  <g id="Group_53" data-name="Group 53" transform="translate(125.69 21.565)">
    <path id="Path_1320" data-name="Path 1320" d="M498.57,454.487v-7.642a14.092,14.092,0,0,0,9.866,4.287c1.86,0,2.831-.728,2.831-2.021,0-.971-.525-1.5-1.942-2.021l-5.136-1.981a7.959,7.959,0,0,1-5.5-7.682c0-5.337,4.608-8.977,10.837-8.977A14.173,14.173,0,0,1,518.017,431v7.521a13.4,13.4,0,0,0-8.167-3.316c-1.456,0-2.385.646-2.385,1.617,0,.889.525,1.414,1.738,1.86l4.769,1.9a7.872,7.872,0,0,1,5.379,7.843c0,5.943-4.448,9.541-11.4,9.541A13.337,13.337,0,0,1,498.57,454.487Z" transform="translate(-497.229 -427.115)" fill="#fff"/>
    <path id="Path_1321" data-name="Path 1321" d="M593.79,469.971c0,4.408-2.063,6.55-5.3,6.55a4.734,4.734,0,0,1-4.287-2.021c-1.214,1.292-3.113,2.021-5.822,2.021-3.88,0-6.914-2.427-6.914-5.9s2.588-5.9,7.439-6.753l4.287-.768c-.282-1.253-1.7-2.142-3.923-2.142a9.234,9.234,0,0,0-7.239,3.113c0-6.268,3.923-8.977,9.22-8.977,6.065,0,9.22,3.273,9.22,8.856v4.769c0,1.053.485,1.86,1.7,1.86A2.292,2.292,0,0,0,593.79,469.971Zm-10.552-.039v-2.466l-2.306.525c-1.292.282-1.86.849-1.86,1.7a1.456,1.456,0,0,0,1.656,1.414A2.9,2.9,0,0,0,583.238,469.932Z" transform="translate(-548.012 -445.673)" fill="#fff"/>
    <path id="Path_1322" data-name="Path 1322" d="M670.143,462.861v13.061h-7.236v-11.24a2.573,2.573,0,0,0-2.588-2.749,3.421,3.421,0,0,0-3.234,2.306v11.686H649.85V455.707h7.236v2.306a6.943,6.943,0,0,1,5.782-2.913C667.759,455.1,670.143,458.292,670.143,462.861Z" transform="translate(-602.613 -445.68)" fill="#fff"/>
    <path id="Path_1323" data-name="Path 1323" d="M780.013,444.59c0,9.138-6.753,14.153-15,14.153H753.53v-28.3h11.483C773.259,430.44,780.013,435.455,780.013,444.59Zm-7.924,0c0-5.215-3.437-7.721-7.8-7.721H761.09v15.445h3.923C768.651,452.314,772.088,449.766,772.088,444.59Z" transform="translate(-674.838 -428.501)" fill="#fff"/>
    <path id="Path_1324" data-name="Path 1324" d="M847.89,427.93a3.986,3.986,0,1,1,3.962,3.8A3.788,3.788,0,0,1,847.89,427.93Zm.322,6.144h7.239v20.218h-7.239Z" transform="translate(-740.57 -424.05)" fill="#fff"/>
    <path id="Path_1325" data-name="Path 1325" d="M894.309,470.188c2.791,0,5.094-.689,6.147-1.617,0,4.894-3.155,7.967-9.177,7.967-6.954,0-11-4.244-11-10.512,0-6.511,4-10.916,10.473-10.916,6.147,0,9.987,4.165,9.987,11.6H887.922C888.241,469.135,891.235,470.188,894.309,470.188Zm-6.429-7.6h5.5a2.512,2.512,0,0,0-2.67-2.831A2.694,2.694,0,0,0,887.88,462.585Z" transform="translate(-763.134 -445.687)" fill="#fff"/>
    <path id="Path_1326" data-name="Path 1326" d="M1021.14,465.773c0-6.914,5.3-10.673,11.24-10.673,5.983,0,11.24,3.759,11.24,10.673,0,6.954-5.255,10.755-11.24,10.755C1026.437,476.528,1021.14,472.727,1021.14,465.773Zm14.921,0c0-2.427-1.414-4.044-3.68-4.044-2.224,0-3.638,1.617-3.638,4.044s1.414,4.123,3.638,4.123C1034.644,469.9,1036.061,468.2,1036.061,465.773Z" transform="translate(-861.259 -445.68)" fill="#fff"/>
    <path id="Path_1327" data-name="Path 1327" d="M1139.571,451.95v6.793H1114.42l13.018-21.549h-11.887V430.44h24.016l-12.818,21.51Z" transform="translate(-926.239 -428.501)" fill="#fff"/>
    <path id="Path_1328" data-name="Path 1328" d="M1199.32,465.773c0-6.914,5.3-10.673,11.24-10.673,5.983,0,11.24,3.759,11.24,10.673,0,6.954-5.258,10.755-11.24,10.755C1204.617,476.528,1199.32,472.727,1199.32,465.773Zm14.921,0c0-2.427-1.414-4.044-3.68-4.044-2.224,0-3.638,1.617-3.638,4.044s1.414,4.123,3.638,4.123C1212.824,469.9,1214.24,468.2,1214.24,465.773Z" transform="translate(-985.382 -445.68)" fill="#fff"/>
    <path id="Path_1329" data-name="Path 1329" d="M1277.04,465.773c0-6.914,5.3-10.673,11.24-10.673,5.983,0,11.24,3.759,11.24,10.673,0,6.954-5.258,10.755-11.24,10.755C1282.337,476.528,1277.04,472.727,1277.04,465.773Zm14.766,0c0-2.427-1.414-4.044-3.68-4.044-2.224,0-3.638,1.617-3.638,4.044s1.414,4.123,3.638,4.123C1290.392,469.9,1291.806,468.2,1291.806,465.773Z" transform="translate(-1039.523 -445.68)" fill="#fff"/>
    <path id="Path_1330" data-name="Path 1330" d="M536.806,556.08l-8.085,28.3H521.2L515.46,567l-5.7,17.387h-7.524l-8.085-28.3h8.006l4.366,17.951,5.5-17.951h6.914l5.5,17.951L528.8,556.08Z" transform="translate(-494.15 -516.024)" fill="#fff"/>
    <path id="Path_1331" data-name="Path 1331" d="M640.58,553.57a3.986,3.986,0,1,1,3.962,3.8A3.786,3.786,0,0,1,640.58,553.57Zm.322,6.144h7.239v20.218H640.9Z" transform="translate(-596.155 -511.573)" fill="#fff"/>
    <path id="Path_1332" data-name="Path 1332" d="M678.29,552.08h7.239V581.6H678.29Z" transform="translate(-622.425 -513.238)" fill="#fff"/>
    <path id="Path_1333" data-name="Path 1333" d="M732.594,552.08V581.6h-7.2v-1.778a6.385,6.385,0,0,1-5.336,2.385c-5.136,0-9.381-3.88-9.381-10.755s4.244-10.673,9.381-10.673c2.142,0,4.287.768,5.336,2.385V552.08ZM725.4,572.7v-2.466a3.61,3.61,0,0,0-3.516-2.831c-1.86,0-3.638,1.292-3.638,4.044s1.778,4.123,3.638,4.123A3.648,3.648,0,0,0,725.4,572.7Z" transform="translate(-644.988 -513.238)" fill="#fff"/>
    <path id="Path_1334" data-name="Path 1334" d="M796.37,552.08h7.239V581.6H796.37Z" transform="translate(-704.681 -513.238)" fill="#fff"/>
    <path id="Path_1335" data-name="Path 1335" d="M831.96,553.57a3.986,3.986,0,1,1,3.962,3.8A3.786,3.786,0,0,1,831.96,553.57Zm.322,6.144h7.239v20.218h-7.239Z" transform="translate(-729.473 -511.573)" fill="#fff"/>
    <path id="Path_1336" data-name="Path 1336" d="M874.519,559.517v.928h5.3v5.74h-5.3V580.66h-7.2V566.185H863.4v-5.74h3.923V559.6c0-5.822,3.195-8.856,8.935-8.856a12.111,12.111,0,0,1,3.68.567v5.9a8.358,8.358,0,0,0-2.184-.325C875.447,556.89,874.519,557.982,874.519,559.517Z" transform="translate(-751.375 -512.304)" fill="#fff"/>
    <path id="Path_1337" data-name="Path 1337" d="M932.479,595.828c2.791,0,5.094-.689,6.146-1.617,0,4.894-3.155,7.967-9.177,7.967-6.954,0-11-4.244-11-10.512,0-6.511,4-10.916,10.473-10.916,6.147,0,9.987,4.166,9.987,11.6H926.092C926.411,594.776,929.405,595.828,932.479,595.828Zm-6.432-7.6h5.5a2.512,2.512,0,0,0-2.67-2.831A2.7,2.7,0,0,0,926.047,588.225Z" transform="translate(-789.724 -533.21)" fill="#fff"/>
    <path id="Path_1338" data-name="Path 1338" d="M1031,578.6h-9.988l-1.981,5.782h-7.967l10.916-28.3h7.964l10.958,28.3h-7.924Zm-2.063-6.065-2.952-8.653-2.952,8.653Z" transform="translate(-854.237 -516.024)" fill="#fff"/>
    <path id="Path_1339" data-name="Path 1339" d="M1114.89,552.08h7.239V581.6h-7.239Z" transform="translate(-926.567 -513.238)" fill="#fff"/>
    <path id="Path_1340" data-name="Path 1340" d="M1152.07,552.08h7.239V581.6h-7.239Z" transform="translate(-952.467 -513.238)" fill="#fff"/>
    <path id="Path_1341" data-name="Path 1341" d="M1187.65,553.57a3.986,3.986,0,1,1,3.962,3.8A3.788,3.788,0,0,1,1187.65,553.57Zm.325,6.144h7.239v20.218h-7.239Z" transform="translate(-977.252 -511.573)" fill="#fff"/>
    <path id="Path_1342" data-name="Path 1342" d="M1243.69,595.611c0,4.408-2.063,6.55-5.3,6.55a4.733,4.733,0,0,1-4.287-2.021c-1.214,1.292-3.113,2.021-5.822,2.021-3.88,0-6.914-2.427-6.914-5.9s2.588-5.9,7.439-6.753l4.287-.768c-.282-1.253-1.7-2.142-3.923-2.142a9.235,9.235,0,0,0-7.239,3.113c0-6.268,3.923-8.977,9.22-8.977,6.065,0,9.22,3.274,9.22,8.856v4.769c0,1.053.485,1.86,1.7,1.86A2.3,2.3,0,0,0,1243.69,595.611Zm-10.555-.039v-2.466l-2.306.525c-1.292.282-1.86.849-1.86,1.7a1.456,1.456,0,0,0,1.656,1.414A2.9,2.9,0,0,0,1233.135,595.572Z" transform="translate(-1000.742 -533.196)" fill="#fff"/>
    <path id="Path_1343" data-name="Path 1343" d="M1320.043,588.5v13.061h-7.236v-11.24a2.573,2.573,0,0,0-2.588-2.749,3.421,3.421,0,0,0-3.234,2.306v11.686h-7.236V581.347h7.236v2.306a6.943,6.943,0,0,1,5.783-2.912C1317.659,580.74,1320.043,583.932,1320.043,588.5Z" transform="translate(-1055.343 -533.203)" fill="#fff"/>
    <path id="Path_1344" data-name="Path 1344" d="M1373.3,591.656c0-6.389,4.53-10.916,11.08-10.916a10.521,10.521,0,0,1,6.711,1.9v6.753a6.872,6.872,0,0,0-5.3-2.142c-2.991,0-4.972,1.414-4.972,3.962,0,2.466,1.9,4.2,5.258,4.2a8.249,8.249,0,0,0,5.418-1.656c0,5.9-2.991,8.41-7.885,8.41C1377.547,602.168,1373.3,598.124,1373.3,591.656Z" transform="translate(-1106.579 -533.203)" fill="#fff"/>
    <path id="Path_1345" data-name="Path 1345" d="M1450.649,595.828c2.791,0,5.094-.689,6.146-1.617,0,4.894-3.152,7.967-9.177,7.967-6.954,0-11-4.244-11-10.512,0-6.511,4-10.916,10.473-10.916,6.147,0,9.987,4.166,9.987,11.6h-12.818C1444.581,594.776,1447.575,595.828,1450.649,595.828Zm-6.429-7.6h5.5a2.512,2.512,0,0,0-2.67-2.831A2.694,2.694,0,0,0,1444.22,588.225Z" transform="translate(-1150.688 -533.21)" fill="#fff"/>
    <path id="Path_1346" data-name="Path 1346" d="M965.153,469.029h-6.389c-.728,0-1.738-.121-1.738-.971a1.139,1.139,0,0,1,.243-.728,12.975,12.975,0,0,0,2.87.282c5.54,0,9.017-2.709,9.017-7.075a4.635,4.635,0,0,0-.027-.549c2.054-1.754,2.864-3.307,2.048-7.178a4.445,4.445,0,0,1-2.821,1.766,7.931,7.931,0,0,1-4.093-.467,12.849,12.849,0,0,0-4.123-.607c-5.579,0-8.977,2.709-8.977,7.035a6.469,6.469,0,0,0,2.345,5.136,4.422,4.422,0,0,0-.728,7.481,4.472,4.472,0,0,0-2.548,3.88c0,3.6,3.638,5.176,10.27,5.176,7.439,0,11.24-2.87,11.24-7.481C971.743,471.213,969.237,469.029,965.153,469.029Zm-5.015-10.794a2.335,2.335,0,1,1,0,4.651,2.335,2.335,0,1,1,0-4.651Zm.485,19.043c-3.273,0-4-.646-4-1.7a1.529,1.529,0,0,1,.282-.849,11.685,11.685,0,0,0,1.171.082H963.9c.807,0,1.253.325,1.253.931C965.153,476.671,964.3,477.278,960.624,477.278Z" transform="translate(-811.862 -444.085)" fill="#fff"/>
    <path id="Path_1347" data-name="Path 1347" d="M670.143,462.861v13.061h-7.236v-11.24a2.573,2.573,0,0,0-2.588-2.749,3.421,3.421,0,0,0-3.234,2.306v11.686H649.85V455.707h7.236v2.306a6.943,6.943,0,0,1,5.782-2.913C667.759,455.1,670.143,458.292,670.143,462.861Z" transform="translate(-602.613 -445.68)" fill="#fff"/>
    <path id="Path_1348" data-name="Path 1348" d="M498.57,454.487v-7.642a14.092,14.092,0,0,0,9.866,4.287c1.86,0,2.831-.728,2.831-2.021,0-.971-.525-1.5-1.942-2.021l-5.136-1.981a7.959,7.959,0,0,1-5.5-7.682c0-5.337,4.608-8.977,10.837-8.977A14.173,14.173,0,0,1,518.017,431v7.521a13.4,13.4,0,0,0-8.167-3.316c-1.456,0-2.385.646-2.385,1.617,0,.889.525,1.414,1.738,1.86l4.769,1.9a7.872,7.872,0,0,1,5.379,7.843c0,5.943-4.448,9.541-11.4,9.541A13.337,13.337,0,0,1,498.57,454.487Z" transform="translate(-497.229 -427.115)" fill="#fff"/>
  </g>
</svg>
